<svg version="1.2" xmlns="http://www.w3.org/2000/svg" viewBox="0 0 180 119" width="180" height="119">
	<title>New Project</title>
	<style>
		.s0 { fill: #000000 } 
	</style>
	<path id="a" class="s0" aria-label="a"  d="m22.7 49.7v4.3c-10 4.1-20 7.2-20 15.8 0 4.7 3.5 8 8.8 8 5.9 0 9.2-4.7 10.4-7h0.8v1.7c0 3.1 1.5 5.3 4.6 5.3 3 0 4.6-2 8.3-5.6l-0.9-2.2c-1.4 1.5-2.3 2.7-3.5 2.7-1.9 0-2.3-1.2-2.2-3.9l0.8-18.3c0.4-7.5-4.7-10.2-12-10.2-8.4 0-13.7 3.9-14.6 9.6l0.5 1 6.8-0.8 1.4-4.7c0.6-1.9 2-2.5 4-2.5 3.5 0 6.8 1.7 6.8 6.8zm0 8v9.3c0 0.4-3.2 4.8-8.1 4.8-3.1 0-4.8-1.4-4.8-4.4 0-5.6 6.8-8.2 12.1-10.5z"/>
	<path id="b" class="s0" aria-label="b"  d="m43.8 50.7c2.9 3 6.1 6.1 12 6.1 8.3 0 16.1-7.8 16.1-19 0-12.2-6.3-18.5-13.7-18.5-5 0-7.9 2.9-10.5 6.2h-0.7v-22.4l-0.8-0.8-11.8 5.2 1 2.2 3.9-1.6 0.8 0.8v47.1h3v-5.3zm3.1-9v-12.3c1-1.7 4.1-5.6 7.8-5.6 6.3 0 9.6 6.9 9.6 17 0 7.4-2.5 13.3-8.3 13.3-5.9 0-9.1-6.1-9.1-12.4z"/>
	<path id="o" class="s0" aria-label="o"  d="m77.6 56.3c-3 10.5 1.5 20 11.5 22.8 10 2.9 18.9-3.2 21.8-13.3 3-10.6-1.5-19.8-11.5-22.7-10.1-2.8-18.9 3-21.8 13.2zm8.1 0.2c2.3-7.9 6.7-12.5 12.1-11 7 2 7.6 10.9 5 20.1-2.1 7.4-6.3 12.8-12.2 11.1-6.7-1.9-7.7-10.4-4.9-20.2z"/>
	<path id="u" class="s0" aria-label="u"  d="m121.8 82.4c-2.9-2.3-2.7-5.6-0.4-8.6l15.7-20.2-9.3-7.3-1.5 1.9 3.4 2.6 0.1 1.1-14.6 18.8c-4.2 5.3-2.1 10.6 1.5 13.4 4 3.1 8.3 3 12.3 1.7l0.6 0.5-3.7 4 0.1 1.1 12.3 2.9 0.7-2.1-3.9-1.3-0.1-1.1 18.3-23.6-9.3-7.3-1.4 1.9 3.3 2.6 0.1 1-14.6 18.9c-2.2 0.9-6.5 1.4-9.6-0.9z"/>
	<path id="t" class="s0" aria-label="t"  d="m179.2 86.2l-0.4-0.7-15-3.5-0.2 1.1 2.7 3.9-20.6 14.4c-4.8 3.5-5.8 6.8-3.2 10.4 2.6 3.7 7.8 3.8 10.6 4l1.3-2.1c-2.3-0.1-4.5-0.2-5.9-2.2-1.4-1.9-0.5-3.3 1.3-4.6l20.4-14.4 4.3 6.1 2.4-1.7-4.3-6z"/>
</svg>